<?xml version="1.0" encoding="UTF-8"?>
<svg id="Layer_2" data-name="Layer 2" xmlns="http://www.w3.org/2000/svg" xmlns:xlink="http://www.w3.org/1999/xlink" viewBox="0 0 795.48 558">
  <defs>
    <style>
      .cls-1 {
        fill: url(#linear-gradient-2);
      }

      .cls-2 {
        fill: url(#linear-gradient-4);
      }

      .cls-3 {
        fill: url(#linear-gradient-3);
      }

      .cls-4 {
        fill: url(#linear-gradient-5);
      }

      .cls-5 {
        fill: url(#linear-gradient);
      }
    </style>
    <linearGradient id="linear-gradient" x1="761.18" y1="552.11" x2="789.59" y2="523.7" gradientUnits="userSpaceOnUse">
      <stop offset="0" stop-color="#ffd800"/>
      <stop offset=".3" stop-color="#9b7f0b"/>
      <stop offset=".5" stop-color="#ffec00"/>
      <stop offset=".7" stop-color="#9b7f0b"/>
      <stop offset="1" stop-color="#ffd800"/>
    </linearGradient>
    <linearGradient id="linear-gradient-2" x1="765.94" y1="548.06" x2="783.97" y2="530.02" xlink:href="#linear-gradient"/>
    <linearGradient id="linear-gradient-3" x1="211.84" y1="670.46" x2="627.8" y2="254.5" xlink:href="#linear-gradient"/>
    <linearGradient id="linear-gradient-4" x1="189.76" y1="486.98" x2="605.73" y2="71.02" xlink:href="#linear-gradient"/>
    <linearGradient id="linear-gradient-5" x1="167.69" y1="303.5" x2="583.65" y2="-112.46" xlink:href="#linear-gradient"/>
  </defs>
  <g id="Layer_1" data-name="Layer 1">
    <g>
      <path class="cls-5" d="M775.39,517.81c-11.08,0-20.1,9.01-20.1,20.1s9.01,20.1,20.1,20.1,20.1-9.01,20.1-20.1-9.01-20.1-20.1-20.1ZM775.39,554.24c-9.01,0-16.34-7.33-16.34-16.34s7.33-16.34,16.34-16.34,16.34,7.33,16.34,16.34-7.33,16.34-16.34,16.34Z"/>
      <path class="cls-1" d="M782.58,528.63c-.5-.51-1.12-.9-1.86-1.19s-1.59-.42-2.54-.42h-7.86l-3.65,21.77h4.55l1.37-8.11h1.99l2.4,8.11h4.87l-2.96-8.58c1.62-.46,2.9-1.32,3.82-2.59.93-1.27,1.39-2.87,1.39-4.8,0-.87-.13-1.66-.39-2.37-.26-.71-.64-1.31-1.14-1.82ZM779.21,533.83l-.12.74c-.15.91-.47,1.55-.97,1.92-.5.37-1.31.56-2.43.56h-2.49l1.06-6.3h2.59c.77,0,1.37.16,1.81.48s.65.84.65,1.57c0,.31-.03.65-.09,1.02Z"/>
      <path class="cls-3" d="M792.71,458.83l-40.97-78.8c-4.17-8.03-12.49-13.07-21.54-13.07h-339.47c-9.46,0-18.21,5.05-22.94,13.24l-29.13,50.44h-.07,0s-270.14,0-270.14,0c-18.21,0-29.95,19.31-21.54,35.47l40.97,78.8c4.19,8.03,12.49,13.09,21.54,13.09h140.34c9.46,0,18.21-5.05,22.94-13.24l29.13-50.44h.07s469.27,0,469.27,0c18.23,0,29.95-19.31,21.54-35.49Z"/>
      <path class="cls-2" d="M770.63,275.37l-40.97-78.82c-4.17-8.03-12.49-13.07-21.54-13.07h-239.91c-9.46,0-18.21,5.05-22.94,13.24l-29.13,50.44h-.07,0s-369.7,0-369.7,0c-18.21,0-29.95,19.31-21.54,35.47l40.97,78.82c4.19,8.03,12.49,13.07,21.54,13.07h239.91c9.46,0,18.21-5.05,22.94-13.24l29.13-50.44h369.77c18.23,0,29.95-19.31,21.54-35.47Z"/>
      <path class="cls-4" d="M748.56,91.89l-40.97-78.8c-4.17-8.03-12.49-13.09-21.54-13.09h-140.34c-9.46,0-18.21,5.05-22.94,13.24l-29.13,50.44h-.07,0s-469.27,0-469.27,0c-18.21,0-29.95,19.31-21.54,35.49l40.97,78.8c4.19,8.03,12.49,13.07,21.54,13.07h339.47c9.46,0,18.21-5.05,22.94-13.24l29.13-50.44h270.21c18.23,0,29.95-19.31,21.54-35.47Z"/>
    </g>
  </g>
</svg>